<svg id="Camada_1" data-name="Camada 1" xmlns="http://www.w3.org/2000/svg" xmlns:xlink="http://www.w3.org/1999/xlink" viewBox="0 0 133 150.05"><defs><style>.cls-1{fill:#a31d48;}.cls-2{fill:#c0ca42;}.cls-3{fill:url(#linear-gradient);}.cls-4{fill:url(#linear-gradient-2);}.cls-5{fill:url(#linear-gradient-3);}.cls-6{fill:url(#linear-gradient-4);}.cls-7{fill:url(#linear-gradient-5);}.cls-8{fill:url(#linear-gradient-6);}.cls-9{fill:url(#linear-gradient-7);}.cls-10{fill:#cfde00;}.cls-11{fill:url(#linear-gradient-8);}.cls-12{fill:url(#linear-gradient-9);}.cls-13{fill:url(#linear-gradient-10);}.cls-14{fill:url(#linear-gradient-11);}.cls-15{fill:url(#linear-gradient-12);}.cls-16{fill:url(#linear-gradient-13);}.cls-17{fill:url(#linear-gradient-14);}.cls-18{fill:url(#linear-gradient-15);}.cls-19{fill:url(#linear-gradient-16);}</style><linearGradient id="linear-gradient" x1="40.2" y1="150.78" x2="40.2" y2="39.52" gradientUnits="userSpaceOnUse"><stop offset="0.13" stop-color="#931c58"/><stop offset="0.28" stop-color="#981c5a"/><stop offset="0.46" stop-color="#a61b5f"/><stop offset="0.64" stop-color="#bd1a69"/><stop offset="0.83" stop-color="#dd1975"/><stop offset="0.92" stop-color="#ed187c"/></linearGradient><linearGradient id="linear-gradient-2" x1="45.76" y1="150.78" x2="45.76" y2="39.52" xlink:href="#linear-gradient"/><linearGradient id="linear-gradient-3" x1="48.45" y1="150.78" x2="48.45" y2="39.52" xlink:href="#linear-gradient"/><linearGradient id="linear-gradient-4" x1="55.71" y1="150.78" x2="55.71" y2="39.52" xlink:href="#linear-gradient"/><linearGradient id="linear-gradient-5" x1="73.28" y1="150.78" x2="73.28" y2="39.52" xlink:href="#linear-gradient"/><linearGradient id="linear-gradient-6" x1="94.48" y1="150.78" x2="94.48" y2="39.52" xlink:href="#linear-gradient"/><linearGradient id="linear-gradient-7" x1="34.42" y1="150.78" x2="34.42" y2="39.52" xlink:href="#linear-gradient"/><linearGradient id="linear-gradient-8" x1="86.3" y1="150.78" x2="86.3" y2="39.52" xlink:href="#linear-gradient"/><linearGradient id="linear-gradient-9" x1="101.15" y1="150.78" x2="101.15" y2="39.52" xlink:href="#linear-gradient"/><linearGradient id="linear-gradient-10" x1="63.95" y1="150.78" x2="63.95" y2="39.52" xlink:href="#linear-gradient"/><linearGradient id="linear-gradient-11" x1="81.82" y1="150.78" x2="81.82" y2="39.52" xlink:href="#linear-gradient"/><linearGradient id="linear-gradient-12" x1="81.9" y1="150.78" x2="81.9" y2="39.52" xlink:href="#linear-gradient"/><linearGradient id="linear-gradient-13" x1="71.61" y1="150.78" x2="71.61" y2="39.52" xlink:href="#linear-gradient"/><linearGradient id="linear-gradient-14" x1="57.1" y1="150.78" x2="57.1" y2="39.52" xlink:href="#linear-gradient"/><linearGradient id="linear-gradient-15" x1="68.88" y1="150.78" x2="68.88" y2="39.52" xlink:href="#linear-gradient"/><linearGradient id="linear-gradient-16" x1="72.91" y1="150.78" x2="72.91" y2="39.52" xlink:href="#linear-gradient"/></defs><title>logo-pitahaya-color</title><path class="cls-1" d="M60.6,86.73a13.5,13.5,0,0,1-.21-2A13.5,13.5,0,0,0,60.6,86.73Z"/><path class="cls-2" d="M60.43,83.28c0-.44.07-.91.14-1.41C60.5,82.37,60.45,82.84,60.43,83.28Z"/><path class="cls-2" d="M60.4,83.72q0-.12,0-.22Q60.41,83.6,60.4,83.72Z"/><path class="cls-3" d="M34.08,98.94a152.9,152.9,0,0,1-.35-17.08,43.4,43.4,0,0,1,.36-6.1,28.53,28.53,0,0,1,1.85-7.19,30.35,30.35,0,0,1,3.36-5.93A46.15,46.15,0,0,1,43.77,57s1.51-1.85,1.72-2.27c0,0,.8-1.64,1.09,0a9.38,9.38,0,0,1-.38,4.7c-1.13,1.81-2.27,3.84-3.38,6.07a69.87,69.87,0,0,0-3.77,9.29A21.82,21.82,0,0,0,39,83,58.89,58.89,0,0,1,36,97.44,22.69,22.69,0,0,1,34.25,101Z"/><path class="cls-4" d="M35.09,101.64A33.7,33.7,0,0,0,37,97.72a39.68,39.68,0,0,0,2.7-10.06s.45-2.44.81-6.68c0,0-.14-5.5,6.92-12.05a39.9,39.9,0,0,0,6.43-8s2.1-3.4,2.6-4.07c0,0-.25,14.7-.25,15.66a21.49,21.49,0,0,1-5.38,14.4c.23-.57.44-1.19.64-1.87a20.32,20.32,0,0,0,.68-3.53,5.6,5.6,0,0,0-.2-2.73c-.21-.62-.39-1.14-.87-1.4-1-.56-2.49.5-2.81.73a7.41,7.41,0,0,0-1.45,1.55A23,23,0,0,0,45.19,82c-.38.63-.78,1.33-2.39,4.48-1,1.85-1.5,2.94-2,3.92l-.69,1.41A103.47,103.47,0,0,1,35.09,101.64Z"/><path class="cls-5" d="M33.44,105.54a25.38,25.38,0,0,1,2.49-3.72s1.61-2.22,2.76-4.16c.52-.87.58-1.08,1.52-2.9a95.93,95.93,0,0,1,5-10.16c.31-.58.65-1.18,1-1.8A27.17,27.17,0,0,1,49,79.16c.35-.39,1-1.08,1.53-.9s.56,1.25.51,2.62A32.8,32.8,0,0,1,49.91,88a44.36,44.36,0,0,0-.21,12.43s-.13,2.65,5.17,7.05c0,0,.62,1.11,8.6,6.36,0,0-7.35,9.11-7.52,15.37-.94-1-2-2.13-3.12-3.22a57.56,57.56,0,0,0-4.44-3.83c-1.21-.73-2.9-.89-3.51-.33a2.11,2.11,0,0,0-.6,1,7.51,7.51,0,0,0-.14,1.07,7.9,7.9,0,0,0,1,4.62,21.92,21.92,0,0,1-3.32-3.09,27.84,27.84,0,0,0-.76-4.94,34.47,34.47,0,0,0-4.63-9.9c-.39-.65-.55-1.11-.94-1.68A38.82,38.82,0,0,1,33.44,105.54Z"/><path class="cls-6" d="M52.81,138.85s-3.78-2-6-9.12c0,0-2.22-5-1.15-6.71,0,0,1.64-1.15,4.56,2.17,0,0,6.85,6.75,8.37,7.4,0,0,5.91,4.17,6.53,4.91,0,0,2.83,3-1.89,3.11A29.31,29.31,0,0,1,56.71,139S53.28,139.16,52.81,138.85Z"/><path class="cls-7" d="M56.91,129.83s.24-6.24,7.59-15.69a13.56,13.56,0,0,0,.67-4.24q0-2.14.06-4.32,0-4-.05-7.81a13.77,13.77,0,0,1,0-1.52,5.14,5.14,0,0,1,.3-1.66,3.65,3.65,0,0,1,.7-1.1,2,2,0,0,1,1.39-.41c.66.08,1.11.56,1.71,1.2a7.35,7.35,0,0,1,.81,1,13.86,13.86,0,0,1,1.58,3.65,25.86,25.86,0,0,0,7.4,13.13l.2.18A23.77,23.77,0,0,0,86,116.59s3.7,1.6,3.65,3.4a29.42,29.42,0,0,1-3.74,11.43,12,12,0,0,1-8.73,5,9.19,9.19,0,0,0-6.34,3.07s-1.22,1.89-5.54,1.47c0,0,2.65-.55,1.81-2.77C67.09,138.22,66.42,136.45,56.91,129.83Z"/><path class="cls-8" d="M88.28,130,91,127.32c.88-.87,1.33-1.29,2.18-2.14,1.18-1.17,1.77-1.75,2.18-2.2a33.07,33.07,0,0,0,2.17-2.68,21.59,21.59,0,0,0,2-3,9.93,9.93,0,0,0,1.15-4.76,21.71,21.71,0,0,0-1.06-6h0l-.24.4c-.17.29-.28.45-.47.74-.33.5-.31.49-.5.79s-.45.65-.59.84-.66.94-1.61,2.32L95.23,113c-.48.71-.93,1.41-1,1.49-.41.64-.44.7-.65,1-.34.5-.59.82-.86,1.17s-.79,1-1.37,1.84c0,.34,0,.8,0,1.33a16,16,0,0,1-.15,1.77c-.12.88-.26,1.55-.31,1.79a20.06,20.06,0,0,1-1,3.11A26.12,26.12,0,0,1,88.28,130Z"/><path class="cls-9" d="M29.8,113.06a19.78,19.78,0,0,1-1.11-3,18.81,18.81,0,0,1-.63-6.49c0-.62.1-1.27.19-2,.13-.94.29-1.82.47-2.62a.39.39,0,0,1,.21-.09c.77-.06,1.54,2.64,1.71,3.28a21.81,21.81,0,0,0,1.58,3.9c.36.52.51.8.92,1.44a38.91,38.91,0,0,1,2.6,4.14c.46.75.92,1.54,1.36,2.38a38.34,38.34,0,0,1,3.74,11,37.77,37.77,0,0,1-4.78-4A26.84,26.84,0,0,1,29.8,113.06Z"/><path class="cls-10" d="M49.7,100.46A44.36,44.36,0,0,1,49.91,88,32.8,32.8,0,0,0,51,80.88c.05-1.36,0-2.43-.51-2.62s-1.18.51-1.53.9a27.17,27.17,0,0,0-2.73,3.63c-.39.62-.73,1.22-1,1.8a95.93,95.93,0,0,0-5,10.16c-.94,1.81-1,2-1.52,2.9-.32.53-.67,1.09-1,1.61,4.73,1.66,9.46,3.41,14.14,5.28C49.63,101.95,49.7,100.46,49.7,100.46Z"/><path class="cls-10" d="M56.21,130.74c-2.54-2.21-5.94-5.56-5.94-5.56-2.91-3.31-4.56-2.17-4.56-2.17-1.07,1.72,1.15,6.71,1.15,6.71a22.15,22.15,0,0,0,2.22,5.07,20.8,20.8,0,0,1,1.8-1.07C52.74,132.77,54.48,131.78,56.21,130.74Z"/><path class="cls-10" d="M78.64,111.61a26.15,26.15,0,0,1-6.93-12.68,13.86,13.86,0,0,0-1.58-3.65,7.35,7.35,0,0,0-.81-1c-.6-.64-1-1.12-1.71-1.2a2,2,0,0,0-1.39.41,3.65,3.65,0,0,0-.7,1.1,5.14,5.14,0,0,0-.3,1.66,13.77,13.77,0,0,0,0,1.52q.08,3.83.05,7.81,0,2.18-.06,4.32a13.56,13.56,0,0,1-.67,4.24c-.91,1.17-1.71,2.29-2.41,3.35a4.46,4.46,0,0,0,.91-.29C68.39,115.6,73.52,113.63,78.64,111.61Z"/><path class="cls-10" d="M100.67,112.57a21.71,21.71,0,0,0-1.06-6h0l-.24.4c-.17.29-.28.45-.47.74-.33.5-.31.49-.5.79s-.45.65-.59.84-.66.94-1.61,2.32L95.23,113c-.48.71-.93,1.41-1,1.49-.41.64-.44.7-.65,1l-.19.28h6.75A9.28,9.28,0,0,0,100.67,112.57Z"/><path class="cls-10" d="M33.14,107.57c-.41-.64-.55-.92-.92-1.44a21.81,21.81,0,0,1-1.58-3.9c-.17-.64-.94-3.33-1.71-3.28a.39.39,0,0,0-.21.09c-.18.8-.35,1.68-.47,2.62-.09.68-.15,1.34-.19,2a18.81,18.81,0,0,0,.63,6.49,19.78,19.78,0,0,0,1.11,3c.18.38.36.74.55,1.09,1.14-1.86,2.33-3.7,3.49-5.54C33.57,108.22,33.33,107.87,33.14,107.57Z"/><path class="cls-11" d="M74.12,102.87s3.81-8.29,6.94-11.65c0,0,5.15-5.77,6.78-9.85,0,0,2.86-11,2.86-14.78,0,0,.22-10.81,2.35-10.75,0,0,1.74-1.06,1.79,5.1,0,0,.84,13.49,1,16.35,0,0-.06,9.24.78,11.42a21.59,21.59,0,0,1-.84,19.43s-4.2,8.17-5.79,9.52a20.3,20.3,0,0,0-5.18-3S77,110.26,74.12,102.87Z"/><path class="cls-12" d="M98.19,89.52A24.26,24.26,0,0,0,99.56,82s.28-5.66,2.13-6.33a1.22,1.22,0,0,1,1.88.42,19.51,19.51,0,0,0,.84,5.46,50.28,50.28,0,0,1,.28,13,31.19,31.19,0,0,1-7.39,13.3,32.73,32.73,0,0,0,2.47-8.23,16.14,16.14,0,0,0-.48-6.78A22.89,22.89,0,0,0,98.19,89.52Z"/><path class="cls-13" d="M51.27,88.89S55.13,83.49,56,81a18.58,18.58,0,0,0,1.24-5.83s.45-16.64.29-20.18c0-.76,0-4.19,1.19-5.58a1.1,1.1,0,0,1,.67-.41c.8-.09,1.56,1.17,2,1.92a10.36,10.36,0,0,1,.82,1.7,39.78,39.78,0,0,1,1.38,4.26c.51,2,.77,3.61.8,3.84.33,2,.89,5,1.86,9.5,0,0,2.43,10.11,2.47,10.48A6,6,0,0,0,69.48,83S76.3,92.92,77,94.78a45.86,45.86,0,0,0-3.33,6.68,31,31,0,0,0-.9-3.52,14,14,0,0,0-1.26-3,11.06,11.06,0,0,0-1.87-2.33A3.22,3.22,0,0,0,64,94.41s.29,12.11-.29,17.39a54,54,0,0,1-10.5-8.14,11.19,11.19,0,0,1-2-4.55S50.51,90.06,51.27,88.89Z"/><path class="cls-10" d="M68.7,80.73c0-.37-2.47-10.48-2.47-10.48-1-4.45-1.53-7.48-1.86-9.5,0-.23-.3-1.8-.8-3.84a39.78,39.78,0,0,0-1.38-4.26,10.36,10.36,0,0,0-.82-1.7c-.46-.76-1.21-2-2-1.92a1.1,1.1,0,0,0-.67.41c-1.24,1.39-1.21,4.82-1.19,5.58.17,3.54-.29,20.18-.29,20.18A18.58,18.58,0,0,1,56,81c-.83,2.48-4.68,7.88-4.68,7.88A8.47,8.47,0,0,0,50.93,92a65.63,65.63,0,0,1,7-2.75c4.29-1.44,8.39-3.19,12.54-4.9L69.48,83A6,6,0,0,1,68.7,80.73Z"/><path class="cls-14" d="M77.29,91.8S80,87,78.44,77.7c0,0-1.79-11.54-2.89-13.82-.72-1.71-.73-3.19-.15-3.57a1.46,1.46,0,0,1,.87-.22,1.48,1.48,0,0,1,.79.31,9.06,9.06,0,0,1,1.13,1,9.82,9.82,0,0,1,1.46,2.08c.46.82,1.16,2,2.21,3.52a9.43,9.43,0,0,0,.65.78,10.25,10.25,0,0,0,1.85,1.57s3.95,3.34,4.29,4q-.4,1.58-.82,3.19-.49,1.87-1,3.69a24,24,0,0,1-5,7.93A14.8,14.8,0,0,0,78,93.63,3.55,3.55,0,0,0,77.29,91.8Z"/><path class="cls-15" d="M75,53.53s3.58-10.76,8.06-14.63c0,0,3-3.42,4.54-4.14,0,0,2.24-.45.56,2.3a45.91,45.91,0,0,0-6,14.11A34.75,34.75,0,0,0,83.06,67c-.27-.44-.68-1.1-1.17-1.93-.92-1.57-1.08-1.94-1.66-2.79a13.3,13.3,0,0,0-1.67-2.07,11.91,11.91,0,0,0-1.68-1.39A35.42,35.42,0,0,0,75,53.53Z"/><path class="cls-16" d="M65.71,62.14s6.42-10.59,6.81-12l3.12,8.82S72.43,59.2,74,63q.7,2.67,1.34,5.55.53,2.42,1,4.72c.23,1.19.53,2.86.79,4.87.07.5.33,2.59.41,4.1a25.64,25.64,0,0,1-1.25,9S70,81,70,80.81,65.71,62.14,65.71,62.14Z"/><path class="cls-10" d="M95.79,77.28c-.11-2.86-1-16.35-1-16.35-.06-6.16-1.79-5.1-1.79-5.1-2.13-.06-2.35,10.75-2.35,10.75,0,3.81-2.86,14.78-2.86,14.78a30.88,30.88,0,0,1-4,6.47c1.77-.55,3.59-.92,5.46-1.49,2.28-.69,4.45-1.39,6.67-2C95.76,81,95.79,77.28,95.79,77.28Z"/><path class="cls-10" d="M104.41,81.51a19.51,19.51,0,0,1-.84-5.46,1.22,1.22,0,0,0-1.88-.42C99.84,76.3,99.56,82,99.56,82v.28c1.83,1.28,3.59,2.62,5.35,4C104.73,83.45,104.41,81.51,104.41,81.51Z"/><path class="cls-10" d="M88.65,73.42c-.34-.7-4.29-4-4.29-4a10.26,10.26,0,0,1-1.85-1.57,9.43,9.43,0,0,1-.65-.78c-1.05-1.52-1.75-2.7-2.21-3.52a9.82,9.82,0,0,0-1.46-2.08,9.06,9.06,0,0,0-1.13-1,1.48,1.48,0,0,0-.79-.31,1.46,1.46,0,0,0-.87.22c-.58.39-.57,1.86.15,3.57.88,1.81,2.19,9.5,2.69,12.55,2.89,1.13,5.89,1.85,8.84,2.93q.38-1.37.74-2.77Q88.25,75,88.65,73.42Z"/><path class="cls-10" d="M76.35,73.64l-.07-.36q-.43-2.3-1-4.72Q74.68,65.67,74,63c-1.54-3.8,1.65-4.09,1.65-4.09L72.51,50.1c-.39,1.46-6.81,12-6.81,12s2.35,10.21,3.56,15.53l.51-.25A47.07,47.07,0,0,0,76.35,73.64Z"/><path class="cls-17" d="M51.15,62.7s.8-16.49,1.08-18a42.76,42.76,0,0,1,5-17.85q3.41-6,4.93-5.58.52.15.81,1a8.06,8.06,0,0,1,0,1.77,9.93,9.93,0,0,1-.33,1.65A21.51,21.51,0,0,1,62,27.89c-.34,1.19-.65,2.47-.93,3.83a54.34,54.34,0,0,0-.88,6s.22,5.82.45,6.72c0,0,.67,3.64.73,4.23A3.84,3.84,0,0,0,60,47.41a1.63,1.63,0,0,0-.88-.31,1.69,1.69,0,0,0-1.29.74A10,10,0,0,0,57.2,49a11,11,0,0,0-1,5.91l-.35.45S51.37,62.31,51.15,62.7Z"/><path class="cls-10" d="M88.16,37.06c1.68-2.74-.56-2.3-.56-2.3-1.57.73-4.54,4.14-4.54,4.14a23.75,23.75,0,0,0-4.87,7A58.85,58.85,0,0,0,81.67,55a29.94,29.94,0,0,1,.44-3.86A45.91,45.91,0,0,1,88.16,37.06Z"/><path class="cls-10" d="M63,22.32q-.3-.9-.81-1-1.52-.45-4.93,5.58a43.3,43.3,0,0,0-3,7c2.12,2.19,4.13,4.52,6,6.94-.08-1.56-.14-3-.14-3a54.34,54.34,0,0,1,.88-6c.28-1.36.59-2.64.93-3.83a21.51,21.51,0,0,0,.69-2.16A9.93,9.93,0,0,0,63,24.08,8.07,8.07,0,0,0,63,22.32Z"/><path class="cls-18" d="M61.54,44.19c.37-1.49,1-2.78,1.54-4.43a58.88,58.88,0,0,1,2.89-7c.72-1.45,1.44-3,2.13-4.62,1-2.36,1.84-4.63,2.54-6.76,0,0,1.34-6.83,2.18-10.81,0,0,.9-3,2.07-.73,0,0,1.74,3.53,1.23,13.16a48,48,0,0,1-2,7.58s-8,8.44-12.26,15.95Z"/><path class="cls-10" d="M46.2,59.48a9.38,9.38,0,0,0,.38-4.7c-.29-1.64-1.09,0-1.09,0-.21.42-1.72,2.27-1.72,2.27a46.15,46.15,0,0,0-4.47,5.6,30.35,30.35,0,0,0-3.36,5.93,26.12,26.12,0,0,0-1.41,4.62c2-.76,4-1.57,6-2.38.66-1.68,1.43-3.45,2.32-5.26C43.93,63.31,45.08,61.29,46.2,59.48Z"/><path class="cls-10" d="M56.19,71.14c.06-3.89.23-14.27.23-14.27-.5.67-2.6,4.07-2.6,4.07a38.11,38.11,0,0,1-5.71,7.27,5.27,5.27,0,0,0,.72.34C51.32,69.36,53.78,70.18,56.19,71.14Z"/><path class="cls-10" d="M76.13,23c.5-9.63-1.23-13.16-1.23-13.16-1.18-2.3-2.07.73-2.07.73-.84,4-2.18,10.81-2.18,10.81-.7,2.13-1.54,4.4-2.54,6.76l-.38.87a19.49,19.49,0,0,1,3.16,4.14l.38.61c1.69-1.95,2.86-3.18,2.86-3.18A48,48,0,0,0,76.13,23Z"/><path class="cls-19" d="M61.86,49.28S66.64,41.48,70,38c0,0,9-11.84,12.65-11.84,0,0,2.88-.39,0,3.42,0,0-4.28,6.89-5.68,9.77l-6.83,13.1s-4.82,8.2-4.87,8.29l.06-.08S63.49,50.73,61.86,49.28Z"/><path class="cls-10" d="M77,39.32c1.4-2.88,5.68-9.77,5.68-9.77,2.88-3.81,0-3.42,0-3.42C79.07,26.13,70,38,70,38a40.13,40.13,0,0,0-3.23,3.95c3.18-.3,6.35-.75,9.5-1.27Z"/></svg>