<?xml version="1.0" encoding="utf-8"?>
<!-- Generator: Adobe Illustrator 21.0.2, SVG Export Plug-In . SVG Version: 6.00 Build 0)  -->
<svg version="1.1" id="Camada_1" xmlns="http://www.w3.org/2000/svg" xmlns:xlink="http://www.w3.org/1999/xlink" x="0px" y="0px"
	 viewBox="0 0 133 150.1" style="enable-background:new 0 0 133 150.1;" xml:space="preserve">
<style type="text/css">
	.st0{fill:#CFDE00;}
	.st1{fill:#FFFFFF;}
</style>
<path class="st0" d="M33.1,107.6c-0.4-0.6-0.5-0.9-0.9-1.4c-0.7-1.2-1.2-2.6-1.6-3.9c-0.2-0.6-0.9-3.3-1.7-3.3c-0.1,0-0.2,0-0.2,0.1
	c-0.2,0.8-0.4,1.7-0.5,2.6c-0.1,0.7-0.1,1.3-0.2,2c-0.2,2.2,0,4.4,0.6,6.5c0.3,1,0.7,2,1.1,3c0.2,0.4,0.4,0.7,0.5,1.1
	c1.1-1.9,2.3-3.7,3.5-5.5C33.6,108.2,33.3,107.9,33.1,107.6z"/>
<g>
	<path class="st1" d="M60.6,86.7c-0.1-0.7-0.2-1.3-0.2-2C60.4,85.4,60.5,86.1,60.6,86.7z"/>
	<path class="st1" d="M60.4,83.3c0-0.4,0.1-0.9,0.1-1.4C60.5,82.4,60.5,82.8,60.4,83.3z"/>
	<path class="st1" d="M60.4,83.7c0-0.1,0-0.2,0-0.2C60.4,83.6,60.4,83.6,60.4,83.7z"/>
	<path class="st1" d="M34.1,98.9c-0.4-5.7-0.6-11.4-0.3-17.1c0-2,0.1-4.1,0.4-6.1c0.3-2.5,0.9-4.9,1.8-7.2c0.9-2.1,2-4.1,3.4-5.9
		c1.3-2,2.8-3.9,4.5-5.6c0,0,1.5-1.8,1.7-2.3c0,0,0.8-1.6,1.1,0c0.3,1.6,0.1,3.2-0.4,4.7c-1.1,1.8-2.3,3.8-3.4,6.1
		c-1.5,3-2.7,6.1-3.8,9.3c-0.5,2.7-0.6,5.5,0,8.2c-0.4,4.9-1.4,9.8-3,14.4c-0.5,1.2-1.1,2.4-1.8,3.6L34.1,98.9z"/>
	<path class="st1" d="M35.1,101.6c0.7-1.3,1.4-2.6,1.9-3.9c1.3-3.2,2.2-6.6,2.7-10.1c0,0,0.5-2.4,0.8-6.7c0,0-0.1-5.5,6.9-12.1
		c2.5-2.4,4.6-5.1,6.4-8c0,0,2.1-3.4,2.6-4.1c0,0-0.3,14.7-0.3,15.7c0,5.3-1.9,10.4-5.4,14.4c0.2-0.6,0.4-1.2,0.6-1.9
		c0.3-1.2,0.6-2.3,0.7-3.5c0.2-0.9,0.1-1.9-0.2-2.7c-0.2-0.6-0.4-1.1-0.9-1.4c-1-0.6-2.5,0.5-2.8,0.7c-0.6,0.4-1,1-1.5,1.6
		c-0.6,0.7-1.1,1.5-1.6,2.3c-0.4,0.6-0.8,1.3-2.4,4.5c-1,1.8-1.5,2.9-2,3.9l-0.7,1.4C38.6,95.2,36.9,98.5,35.1,101.6z"/>
	<path class="st1" d="M33.4,105.5c0.7-1.3,1.6-2.6,2.5-3.7c0,0,1.6-2.2,2.8-4.2c0.5-0.9,0.6-1.1,1.5-2.9c1.5-3.5,3.1-6.9,5-10.2
		c0.3-0.6,0.7-1.2,1-1.8c0.8-1.3,1.8-2.5,2.8-3.6c0.3-0.4,1-1.1,1.5-0.9s0.6,1.3,0.5,2.6c-0.1,2.4-0.5,4.8-1.1,7.1
		c-0.7,4.1-0.7,8.3-0.2,12.4c0,0-0.1,2.7,5.2,7.1c0,0,0.6,1.1,8.6,6.4c0,0-7.3,9.1-7.5,15.4c-0.9-1-2-2.1-3.1-3.2
		c-1.4-1.4-2.9-2.6-4.4-3.8c-1.2-0.7-2.9-0.9-3.5-0.3c-0.3,0.3-0.5,0.6-0.6,1c-0.1,0.4-0.1,0.7-0.1,1.1c-0.1,1.6,0.2,3.2,1,4.6
		c-1.2-0.9-2.3-1.9-3.3-3.1c-0.1-1.7-0.4-3.3-0.8-4.9c-1-3.5-2.6-6.9-4.6-9.9c-0.4-0.7-0.5-1.1-0.9-1.7
		C34.8,107.8,34.1,106.7,33.4,105.5z"/>
	<path class="st1" d="M52.8,138.9c0,0-3.8-2-6-9.1c0,0-2.2-5-1.2-6.7c0,0,1.6-1.2,4.6,2.2c0,0,6.8,6.7,8.4,7.4c0,0,5.9,4.2,6.5,4.9
		c0,0,2.8,3-1.9,3.1c-2.2-0.3-4.4-0.8-6.5-1.6C56.7,139,53.3,139.2,52.8,138.9z"/>
	<path class="st1" d="M56.9,129.8c0,0,0.2-6.2,7.6-15.7c0.4-1.4,0.7-2.8,0.7-4.2c0-1.4,0-2.9,0.1-4.3c0-2.7,0-5.3-0.1-7.8
		c0-0.5,0-1,0-1.5c0-0.6,0.1-1.1,0.3-1.7c0.2-0.4,0.4-0.8,0.7-1.1c0.4-0.3,0.9-0.5,1.4-0.4c0.7,0.1,1.1,0.6,1.7,1.2
		c0.3,0.3,0.6,0.6,0.8,1c0.7,1.1,1.2,2.4,1.6,3.7c1.1,5,3.7,9.6,7.4,13.1l0.2,0.2c2,1.8,4.3,3.3,6.7,4.3c0,0,3.7,1.6,3.7,3.4
		c-0.4,4-1.7,7.9-3.7,11.4c-2,2.9-5.2,4.7-8.7,5c-2.4,0.1-4.7,1.2-6.3,3.1c0,0-1.2,1.9-5.5,1.5c0,0,2.7-0.6,1.8-2.8
		C67.1,138.2,66.4,136.4,56.9,129.8z"/>
	<path class="st1" d="M88.3,130l2.7-2.7c0.9-0.9,1.3-1.3,2.2-2.1c1.2-1.2,1.8-1.8,2.2-2.2c0.8-0.9,1.5-1.7,2.2-2.7
		c0.7-0.9,1.4-1.9,2-3c0.8-1.5,1.2-3.1,1.2-4.8c-0.1-2-0.4-4.1-1.1-6l0,0l-0.2,0.4c-0.2,0.3-0.3,0.4-0.5,0.7
		c-0.3,0.5-0.3,0.5-0.5,0.8s-0.4,0.7-0.6,0.8s-0.7,0.9-1.6,2.3l-1,1.4c-0.5,0.7-0.9,1.4-1,1.5c-0.4,0.6-0.4,0.7-0.7,1
		c-0.3,0.5-0.6,0.8-0.9,1.2s-0.8,1-1.4,1.8c0,0.3,0,0.8,0,1.3c0,0.6-0.1,1.2-0.2,1.8c-0.1,0.9-0.3,1.6-0.3,1.8
		c-0.2,1.1-0.6,2.1-1,3.1C89.4,127.7,88.9,128.9,88.3,130z"/>
	<path class="st1" d="M29.8,113.1c-0.5-1-0.8-2-1.1-3c-0.6-2.1-0.8-4.3-0.6-6.5c0-0.6,0.1-1.3,0.2-2c0.1-0.9,0.3-1.8,0.5-2.6
		c0.1-0.1,0.1-0.1,0.2-0.1c0.8-0.1,1.5,2.6,1.7,3.3c0.4,1.3,0.9,2.7,1.6,3.9c0.4,0.5,0.5,0.8,0.9,1.4c1,1.3,1.8,2.7,2.6,4.1
		c0.5,0.8,0.9,1.5,1.4,2.4c1.8,3.5,3.1,7.2,3.7,11c-1.7-1.2-3.3-2.5-4.8-4C33.5,118.8,31.4,116.1,29.8,113.1z"/>
	<path class="st1" d="M49.7,100.5c-0.5-4.1-0.4-8.3,0.2-12.5c0.6-2.3,1-4.7,1.1-7.1c0-1.4,0-2.4-0.5-2.6s-1.2,0.5-1.5,0.9
		c-1,1.1-1.9,2.3-2.7,3.6c-0.4,0.6-0.7,1.2-1,1.8c-1.9,3.3-3.5,6.7-5,10.2c-0.9,1.8-1,2-1.5,2.9c-0.3,0.5-0.7,1.1-1,1.6
		c4.7,1.7,9.5,3.4,14.1,5.3C49.6,101.9,49.7,100.5,49.7,100.5z"/>
	<path class="st1" d="M56.2,130.7c-2.5-2.2-5.9-5.6-5.9-5.6c-2.9-3.3-4.6-2.2-4.6-2.2c-1.1,1.7,1.2,6.7,1.2,6.7
		c0.5,1.8,1.3,3.5,2.2,5.1c0.6-0.4,1.2-0.7,1.8-1.1C52.7,132.8,54.5,131.8,56.2,130.7z"/>
	<path class="st1" d="M78.6,111.6c-3.5-3.5-5.9-7.9-6.9-12.7c-0.3-1.3-0.9-2.5-1.6-3.7c-0.2-0.4-0.5-0.7-0.8-1
		c-0.6-0.6-1-1.1-1.7-1.2c-0.5,0-1,0.1-1.4,0.4c-0.3,0.3-0.5,0.7-0.7,1.1c-0.2,0.5-0.3,1.1-0.3,1.7c0,0.5,0,1,0,1.5
		c0.1,2.6,0.1,5.2,0.1,7.8c0,1.5,0,2.9-0.1,4.3c0,1.4-0.2,2.9-0.7,4.2c-0.9,1.2-1.7,2.3-2.4,3.3c0.3-0.1,0.6-0.2,0.9-0.3
		C68.4,115.6,73.5,113.6,78.6,111.6z"/>
	<path class="st1" d="M100.7,112.6c-0.1-2-0.4-4.1-1.1-6l0,0l-0.2,0.4c-0.2,0.3-0.3,0.4-0.5,0.7c-0.3,0.5-0.3,0.5-0.5,0.8
		s-0.4,0.7-0.6,0.8s-0.7,0.9-1.6,2.3l-1,1.3c-0.5,0.7-0.9,1.4-1,1.5c-0.4,0.6-0.4,0.7-0.7,1l-0.2,0.3h6.8
		C100.5,114.7,100.7,113.7,100.7,112.6z"/>
	<path class="st1" d="M74.1,102.9c0,0,3.8-8.3,6.9-11.7c0,0,5.2-5.8,6.8-9.8c0,0,2.9-11,2.9-14.8c0,0,0.2-10.8,2.3-10.8
		c0,0,1.7-1.1,1.8,5.1c0,0,0.8,13.5,1,16.3c0,0-0.1,9.2,0.8,11.4c2.8,6.2,2.5,13.5-0.8,19.4c0,0-4.2,8.2-5.8,9.5
		c-1.6-1.3-3.3-2.3-5.2-3C84.8,114.7,77,110.3,74.1,102.9z"/>
	<path class="st1" d="M98.2,89.5c0.9-2.4,1.3-5,1.4-7.5c0,0,0.3-5.7,2.1-6.3c0.5-0.4,1.3-0.4,1.7,0.2c0.1,0.1,0.1,0.2,0.2,0.3
		c0,1.9,0.3,3.7,0.8,5.5c0.7,4.3,0.7,8.7,0.3,13c-1.3,5-3.9,9.5-7.4,13.3c1.2-2.6,2-5.4,2.5-8.2c0.3-2.3,0.2-4.6-0.5-6.8
		C99,91.7,98.6,90.6,98.2,89.5z"/>
	<path class="st1" d="M51.3,88.9c0,0,3.9-5.4,4.7-7.9c0.7-1.9,1.1-3.8,1.2-5.8c0,0,0.5-16.6,0.3-20.2c0-0.8,0-4.2,1.2-5.6
		c0.2-0.2,0.4-0.4,0.7-0.4c0.8-0.1,1.6,1.2,2,1.9c0.3,0.5,0.6,1.1,0.8,1.7c0.5,1.4,1,2.8,1.4,4.3c0.5,2,0.8,3.6,0.8,3.8
		c0.3,2,0.9,5,1.9,9.5c0,0,2.4,10.1,2.5,10.5c0.1,0.8,0.4,1.6,0.8,2.3c0,0,6.8,9.9,7.5,11.8c-1.3,2.1-2.4,4.4-3.3,6.7
		c-0.2-1.2-0.5-2.4-0.9-3.5c-0.3-1-0.7-2.1-1.3-3c-0.5-0.9-1.1-1.6-1.9-2.3c-1.2-1.3-3.2-1.5-4.5-0.3c-0.6,0.5-1,1.3-1.1,2.1
		c0,0,0.3,12.1-0.3,17.4c-3.8-2.3-7.3-5-10.5-8.1c-1-1.3-1.7-2.9-2-4.6C51.2,99.1,50.5,90.1,51.3,88.9z"/>
	<path class="st1" d="M68.7,80.7c0-0.4-2.5-10.5-2.5-10.5c-1-4.4-1.5-7.5-1.9-9.5c0-0.2-0.3-1.8-0.8-3.8c-0.4-1.4-0.8-2.9-1.4-4.3
		c-0.2-0.6-0.5-1.2-0.8-1.7c-0.5-0.8-1.2-2-2-1.9c-0.3,0-0.5,0.2-0.7,0.4c-1.2,1.4-1.2,4.8-1.2,5.6c0.2,3.5-0.3,20.2-0.3,20.2
		c-0.1,2-0.5,3.9-1.2,5.8c-0.8,2.5-4.7,7.9-4.7,7.9c-0.3,1-0.5,2.1-0.4,3.1c2.3-1,4.6-2,7-2.8c4.3-1.4,8.4-3.2,12.5-4.9l-1-1.3
		C69.1,82.3,68.8,81.5,68.7,80.7z"/>
	<path class="st1" d="M77.3,91.8c0,0,2.7-4.8,1.2-14.1c0,0-1.8-11.5-2.9-13.8c-0.7-1.7-0.7-3.2-0.2-3.6c0.3-0.2,0.6-0.2,0.9-0.2
		c0.3,0,0.6,0.1,0.8,0.3c0.4,0.3,0.8,0.6,1.1,1c0.6,0.6,1.1,1.3,1.5,2.1c0.5,0.8,1.2,2,2.2,3.5c0.2,0.3,0.4,0.5,0.7,0.8
		c0.6,0.6,1.2,1.1,1.8,1.6c0,0,3.9,3.3,4.3,4c-0.3,1.1-0.5,2.1-0.8,3.2c-0.3,1.2-0.7,2.5-1,3.7c-1.1,2.9-2.8,5.6-5,7.9
		c-1.7,1.5-3,3.4-3.8,5.5C77.9,93,77.7,92.3,77.3,91.8z"/>
	<path class="st1" d="M75,53.5c0,0,3.6-10.8,8.1-14.6c0,0,3-3.4,4.5-4.1c0,0,2.2-0.5,0.6,2.3c-2.8,4.3-4.8,9.1-6,14.1
		c-0.9,5.3-0.6,10.7,0.9,15.8c-0.3-0.4-0.7-1.1-1.2-1.9c-0.9-1.6-1.1-1.9-1.7-2.8c-0.5-0.7-1-1.4-1.7-2.1c-0.5-0.5-1.1-1-1.7-1.4
		C76.4,57,75.8,55.2,75,53.5z"/>
	<path class="st1" d="M65.7,62.1c0,0,6.4-10.6,6.8-12l3.1,8.8c0,0-3.2,0.2-1.6,4c0.5,1.8,0.9,3.6,1.3,5.6c0.4,1.6,0.7,3.2,1,4.7
		c0.2,1.2,0.5,2.9,0.8,4.9c0.1,0.5,0.3,2.6,0.4,4.1c0.1,3.1-0.3,6.1-1.3,9c0,0-6.3-10.2-6.3-10.4S65.7,62.1,65.7,62.1z"/>
	<path class="st1" d="M95.8,77.3c-0.1-2.9-1-16.3-1-16.3c-0.1-6.2-1.8-5.1-1.8-5.1c-2.1-0.1-2.3,10.8-2.3,10.8
		c0,3.8-2.9,14.8-2.9,14.8c-1.1,2.3-2.4,4.5-4,6.5c1.8-0.6,3.6-0.9,5.5-1.5c2.3-0.7,4.4-1.4,6.7-2C95.8,81,95.8,77.3,95.8,77.3z"/>
	<path class="st1" d="M104.4,81.5c-0.5-1.8-0.8-3.6-0.8-5.5c-0.3-0.6-1-0.9-1.6-0.6c-0.1,0-0.2,0.1-0.3,0.2
		c-1.9,0.7-2.1,6.4-2.1,6.4v0.3c1.8,1.3,3.6,2.6,5.3,4C104.7,83.4,104.4,81.5,104.4,81.5z"/>
	<path class="st1" d="M88.7,73.4c-0.3-0.7-4.3-4-4.3-4c-0.7-0.4-1.3-1-1.8-1.6c-0.2-0.2-0.4-0.5-0.7-0.8c-1.1-1.5-1.8-2.7-2.2-3.5
		c-0.4-0.8-0.9-1.5-1.5-2.1c-0.3-0.4-0.7-0.7-1.1-1c-0.2-0.2-0.5-0.3-0.8-0.3c-0.3,0-0.6,0.1-0.9,0.2c-0.6,0.4-0.6,1.9,0.2,3.6
		c0.9,1.8,2.2,9.5,2.7,12.5c2.9,1.1,5.9,1.8,8.8,2.9c0.3-0.9,0.5-1.8,0.7-2.8C88.1,75.6,88.4,74.5,88.7,73.4z"/>
	<path class="st1" d="M76.3,73.6l-0.1-0.4c-0.3-1.5-0.6-3.1-1-4.7c-0.4-1.9-0.8-3.8-1.3-5.6c-1.5-3.8,1.7-4.1,1.7-4.1l-3.1-8.8
		c-0.4,1.5-6.8,12-6.8,12s2.3,10.2,3.6,15.5l0.5-0.3C72.1,76.3,74.3,75.1,76.3,73.6z"/>
	<path class="st1" d="M51.2,62.7c0,0,0.8-16.5,1.1-18c0.3-6.2,2-12.3,5-17.9c2.3-4,3.9-5.9,4.9-5.6c0.3,0.1,0.6,0.4,0.8,1
		c0.1,0.6,0.1,1.2,0,1.8c-0.1,0.6-0.2,1.1-0.3,1.6c-0.2,0.7-0.4,1.5-0.6,2.2c-0.3,1.2-0.7,2.5-0.9,3.8c-0.4,2-0.7,4-0.9,6
		c0,0,0.2,5.8,0.5,6.7c0,0,0.7,3.6,0.7,4.2c-0.3-0.5-0.8-1-1.4-1.3c-0.3-0.2-0.6-0.3-0.9-0.3c-0.5,0-1,0.3-1.3,0.7
		c-0.2,0.4-0.4,0.8-0.6,1.2c-0.9,1.8-1.2,3.9-1,5.9l-0.3,0.5C55.9,55.4,51.4,62.3,51.2,62.7z"/>
	<path class="st1" d="M88.2,37.1c1.7-2.7-0.6-2.3-0.6-2.3c-1.6,0.7-4.5,4.1-4.5,4.1c-2,2-3.7,4.4-4.9,7c0.9,3.1,2.1,6.2,3.5,9.1
		c0.1-1.3,0.2-2.6,0.4-3.9C83.3,46.1,85.4,41.4,88.2,37.1z"/>
	<path class="st1" d="M63,22.3c-0.2-0.6-0.5-0.9-0.8-1c-1-0.3-2.7,1.6-4.9,5.6c-1.2,2.2-2.2,4.6-3,7c2.1,2.2,4.1,4.5,6,6.9
		c-0.1-1.6-0.1-3-0.1-3c0.2-2,0.5-4,0.9-6c0.3-1.4,0.6-2.6,0.9-3.8c0.3-0.7,0.5-1.4,0.7-2.2c0.2-0.6,0.3-1.2,0.4-1.8
		C63.1,23.5,63.1,22.9,63,22.3z"/>
	<path class="st1" d="M61.5,44.2c0.4-1.5,1-2.8,1.5-4.4c0.8-2.4,1.8-4.7,2.9-7c0.7-1.5,1.4-3,2.1-4.6c1-2.4,1.8-4.6,2.5-6.8
		c0,0,1.3-6.8,2.2-10.8c0,0,0.9-3,2.1-0.7c0,0,1.7,3.5,1.2,13.2c-0.5,2.6-1.1,5.1-2,7.6c0,0-8,8.4-12.3,16L61.5,44.2z"/>
	<path class="st1" d="M46.2,59.5c0.5-1.5,0.7-3.1,0.4-4.7c-0.3-1.6-1.1,0-1.1,0c-0.2,0.4-1.7,2.3-1.7,2.3c-1.6,1.7-3.1,3.6-4.5,5.6
		c-1.3,1.8-2.5,3.8-3.4,5.9c-0.6,1.5-1.1,3-1.4,4.6c2-0.8,4-1.6,6-2.4c0.7-1.7,1.4-3.4,2.3-5.3C43.9,63.3,45.1,61.3,46.2,59.5z"/>
	<path class="st1" d="M56.2,71.1c0.1-3.9,0.2-14.3,0.2-14.3c-0.5,0.7-2.6,4.1-2.6,4.1c-1.6,2.6-3.5,5.1-5.7,7.3
		c0.2,0.1,0.5,0.2,0.7,0.3C51.3,69.4,53.8,70.2,56.2,71.1z"/>
	<path class="st1" d="M76.1,23c0.5-9.6-1.2-13.2-1.2-13.2c-1.2-2.3-2.1,0.7-2.1,0.7c-0.8,4-2.2,10.8-2.2,10.8
		c-0.7,2.1-1.5,4.4-2.5,6.8L67.7,29c1.2,1.2,2.3,2.6,3.2,4.1l0.4,0.6c1.7-2,2.9-3.2,2.9-3.2C75,28.1,75.7,25.6,76.1,23z"/>
	<path class="st1" d="M61.9,49.3c0,0,4.8-7.8,8.1-11.3c0,0,9-11.8,12.7-11.8c0,0,2.9-0.4,0,3.4c0,0-4.3,6.9-5.7,9.8l-6.8,13.1
		c0,0-4.8,8.2-4.9,8.3l0.1-0.1C65.3,60.7,63.5,50.7,61.9,49.3z"/>
	<path class="st1" d="M77,39.3c1.4-2.9,5.7-9.8,5.7-9.8c2.9-3.8,0-3.4,0-3.4C79.1,26.1,70,38,70,38c-1.2,1.2-2.2,2.6-3.2,4
		c3.2-0.3,6.3-0.8,9.5-1.3L77,39.3z"/>
</g>
</svg>
