<svg id="Layer_1" data-name="Layer 1" xmlns="http://www.w3.org/2000/svg" viewBox="0 0 316.48 518.97"><defs><style>.cls-1{fill:#c0ca40;}.cls-2{fill:#cc1c68;}.cls-3{fill:#a5ce3a;}</style></defs><title>OFICIAL LOGO PITAHAYA</title><path class="cls-1" d="M143.9,307.4q0-.44,0-.86Q143.92,307,143.9,307.4Z"/><path class="cls-2" d="M34,350.87s-2.32-22.52-1.35-65.57A166.64,166.64,0,0,1,34,261.88a109.53,109.53,0,0,1,7.09-27.59c3.9-9.51,8.24-15.91,12.91-22.78A177.2,177.2,0,0,1,71.18,190s5.8-7.09,6.61-8.71c0,0,3.06-6.29,4.19,0,0,0,1.93,11-1.45,18.06-4.33,7-8.73,14.73-13,23.32a268.27,268.27,0,0,0-14.48,35.67A83.77,83.77,0,0,0,53,289.49a226.1,226.1,0,0,1-11.77,55.63s-4,10.16-6.61,13.54Z"/><path class="cls-2" d="M37.86,361.24c3.18-5.81,3.14-5.77,7.22-15.07s8-22.34,10.36-38.63c0,0,1.71-9.35,3.11-25.64,0,0-.53-21.12,26.55-46.28,0,0,15.64-14.67,24.67-30.64,0,0,8.06-13.06,10-15.64,0,0-1,56.43-1,60.14,0,0,2.26,28.38-20.64,55.3.86-2.18,1.7-4.58,2.44-7.17a78,78,0,0,0,2.62-13.56,21.49,21.49,0,0,0-.77-10.49c-.81-2.4-1.48-4.36-3.33-5.37-3.9-2.13-9.57,1.93-10.81,2.81-.6.43-2.17,1.61-5.56,5.95a88.16,88.16,0,0,0-6.14,8.89c-1.44,2.42-3,5.12-9.19,17.21-3.66,7.12-5.75,11.3-7.61,15.06-.84,1.7-1.7,3.45-2.64,5.39C52.93,332.33,47.35,345.47,37.86,361.24Z"/><path class="cls-2" d="M31.52,376.21s.68-2.06,9.56-14.3c0,0,6.17-8.53,10.62-16,2-3.33,2.24-4.16,5.84-11.12,0,0,11.45-26.93,19.19-39,1.18-2.23,2.5-4.55,4-6.91a104.33,104.33,0,0,1,10.5-13.93c1.34-1.49,4-4.16,5.88-3.45s2.16,4.81,2,10A125.92,125.92,0,0,1,94.78,309,170.34,170.34,0,0,0,94,356.73s-.48,10.16,19.83,27.09c0,0,2.37,4.27,33,24.42,0,0-28.22,35-28.86,59-3.59-4-7.58-8.17-12-12.38a221,221,0,0,0-17-14.69c-4.63-2.81-11.14-3.42-13.47-1.28a8.09,8.09,0,0,0-2.29,3.94,28.82,28.82,0,0,0-.54,4.1c-.47,8.12,1.65,13.94,3.94,17.73,0,0-9.18-7-12.73-11.85a106.88,106.88,0,0,0-2.9-19c-4.18-16.93-12.55-29.17-17.79-38-1.49-2.51-2.09-4.25-3.59-6.45A149,149,0,0,1,31.52,376.21Z"/><path class="cls-2" d="M105.89,504.12s-14.5-7.7-22.85-35c0,0-8.51-19.16-4.41-25.76,0,0,6.3-4.4,17.49,8.33,0,0,26.32,25.92,32.15,28.43,0,0,22.69,16,25.06,18.85,0,0,10.87,11.62-7.25,11.94a112.54,112.54,0,0,1-25.22-6.28S107.69,505.3,105.89,504.12Z"/><path class="cls-2" d="M121.65,469.47s.91-24,29.13-60.25a52.06,52.06,0,0,0,2.58-16.29q.19-8.2.25-16.59.11-15.31-.21-30a52.85,52.85,0,0,1,.14-5.85c.23-2.92.37-4.49,1.14-6.37a14,14,0,0,1,2.68-4.21,7.63,7.63,0,0,1,5.35-1.59c2.55.31,4.27,2.14,6.58,4.61a28.21,28.21,0,0,1,3.12,4,53.23,53.23,0,0,1,6.05,14c6.19,24.35,17.1,40,28.42,50.42l.76.69s13.22,12.25,25.64,16.61c0,0,14.19,6.13,14,13.06a113,113,0,0,1-14.37,43.87,46.26,46.26,0,0,1-33.51,19.34s-13.38-.16-24.35,11.77c0,0-4.68,7.26-21.28,5.64,0,0,10.16-2.1,6.93-10.64C160.72,501.68,158.14,494.89,121.65,469.47Z"/><path class="cls-2" d="M242.08,470.18s4.91-4.93,10.39-10.34c3.38-3.34,5.09-4.95,8.37-8.2,4.53-4.5,6.81-6.73,8.36-8.45a127,127,0,0,0,8.32-10.29c4.15-5.59,6.22-8.39,7.73-11.41a38.12,38.12,0,0,0,4.42-18.27c-.29-10.75-3.71-22.74-4.08-22.91a.43.43,0,0,0-.17,0c-.2.36-.51.9-.91,1.55-.66,1.1-1.09,1.72-1.81,2.84-1.25,1.92-1.17,1.88-1.93,3-1,1.48-1.74,2.5-2.27,3.22-.7,1-2.52,3.6-6.18,8.89-1.79,2.59-2.7,3.92-3.54,5.17-1.83,2.73-3.57,5.43-3.75,5.71-1.59,2.47-1.69,2.69-2.5,3.87-1.3,1.9-2.26,3.13-3.29,4.48-1.25,1.63-3,4-5.24,7.08.08,1.3.15,3.05.09,5.12a61.41,61.41,0,0,1-.58,6.79c-.45,3.39-1,6-1.21,6.87a77,77,0,0,1-3.78,11.95A100.27,100.27,0,0,1,242.08,470.18Z"/><path class="cls-2" d="M17.55,405.1a76,76,0,0,1-4.27-11.38,72.24,72.24,0,0,1-2.44-24.91c.15-2.37.38-4.88.73-7.51.48-3.63,1.11-7,1.82-10.06a1.5,1.5,0,0,1,.81-.33c3-.22,5.9,10.13,6.57,12.58,0,0,3.49,11.28,6.07,15,1.4,2,2,3.08,3.53,5.54,2.26,3.58,6.58,9,10,15.89,1.78,2.87,3.53,5.92,5.22,9.15A147.19,147.19,0,0,1,60,451.38a145,145,0,0,1-18.36-15.26C33.33,428,24.09,419.16,17.55,405.1Z"/><path class="cls-3" d="M94,356.73A170.34,170.34,0,0,1,94.78,309,125.92,125.92,0,0,0,99,281.53c.2-5.24,0-9.31-2-10s-4.54,2-5.88,3.45a104.32,104.32,0,0,0-10.5,13.93c-1.49,2.37-2.81,4.68-4,6.91-7.74,12.09-19.19,39-19.19,39-3.61,7-3.86,7.8-5.84,11.12-1.22,2.05-2.57,4.18-3.89,6.19C66,358.47,84.11,365.19,102.1,372.4,93.7,362.43,94,356.73,94,356.73Z"/><path class="cls-3" d="M118.93,473c-9.76-8.48-22.81-21.34-22.81-21.34-11.19-12.72-17.49-8.33-17.49-8.33-4.1,6.6,4.41,25.76,4.41,25.76a85,85,0,0,0,8.53,19.47,79.88,79.88,0,0,1,6.9-4.12C105.63,480.77,112.32,477,118.93,473Z"/><path class="cls-3" d="M205.06,399.52c-10.65-10.38-20.74-25.65-26.59-48.69a53.23,53.23,0,0,0-6.05-14,28.2,28.2,0,0,0-3.12-4c-2.31-2.47-4-4.3-6.58-4.61a7.63,7.63,0,0,0-5.35,1.59,14,14,0,0,0-2.68,4.21c-.76,1.89-.9,3.46-1.14,6.37a52.87,52.87,0,0,0-.14,5.85q.31,14.69.21,30-.06,8.39-.25,16.59a52.06,52.06,0,0,1-2.58,16.29c-3.49,4.49-6.56,8.79-9.27,12.88a17.13,17.13,0,0,0,3.51-1.1C165.7,414.85,185.43,407.27,205.06,399.52Z"/><path class="cls-3" d="M289.66,403.22c-.29-10.75-3.71-22.74-4.08-22.91a.43.43,0,0,0-.17,0c-.2.36-.51.9-.91,1.55-.66,1.1-1.09,1.72-1.81,2.84-1.25,1.92-1.17,1.88-1.93,3-1,1.48-1.74,2.5-2.27,3.22-.7,1-2.52,3.6-6.18,8.89-1.79,2.59-2.7,3.92-3.54,5.17-1.83,2.73-3.57,5.43-3.75,5.71-1.59,2.47-1.69,2.69-2.5,3.87l-.75,1.07H287.7A35.61,35.61,0,0,0,289.66,403.22Z"/><path class="cls-3" d="M30.36,384c-1.56-2.47-2.13-3.53-3.53-5.54-2.58-3.71-6.07-15-6.07-15-.67-2.46-3.6-12.8-6.57-12.58a1.5,1.5,0,0,0-.81.33c-.71,3.07-1.34,6.43-1.82,10.06-.35,2.63-.58,5.14-.73,7.51a72.24,72.24,0,0,0,2.44,24.91,76,76,0,0,0,4.27,11.38c.68,1.45,1.38,2.85,2.11,4.19,4.39-7.15,9-14.2,13.42-21.26C32,386.52,31.09,385.18,30.36,384Z"/><path class="cls-2" d="M187.7,366s14.62-31.82,26.66-44.72c0,0,19.78-22.14,26-37.84,0,0,11-42.14,11-56.76,0,0,.86-41.49,9-41.28,0,0,6.66-4.08,6.88,19.56,0,0,3.22,51.81,3.65,62.78,0,0-.21,35.47,3,43.86,0,0,18.54,35.61-3.22,74.6,0,0-16.12,31.39-22.25,36.55a78,78,0,0,0-19.89-11.39S198.67,394.35,187.7,366Z"/><path class="cls-2" d="M280.14,314.7c1.08-4.46,2.06-9.34,2.83-14.61.56-3.82.95-7.46,1.21-10.91a132.79,132.79,0,0,1,2.65-14.68,58.37,58.37,0,0,1,2.09-6.87c.74-2,1.48-3.58,2.05-4.76a5.4,5.4,0,0,1,10.3,1.58q.71,2.86,1.33,5.94a131.1,131.1,0,0,1,2.06,14.43c.5,4.77.87,9.79,1.08,15a235,235,0,0,1-.72,29.82,100.31,100.31,0,0,1-5.38,19.85,102.56,102.56,0,0,1-23,35.26c2.78-6.38,7.81-19,9.49-31.59a62,62,0,0,0-1.85-26A87.89,87.89,0,0,0,280.14,314.7Z"/><path class="cls-3" d="M305.88,314.88c.12-4.81.1-9.83-.11-15s-.58-10.26-1.08-15a131.1,131.1,0,0,0-2.06-14.43q-.62-3.08-1.33-5.94a5.4,5.4,0,0,0-10.3-1.58c-.58,1.18-1.31,2.8-2.05,4.76a58.37,58.37,0,0,0-2.09,6.87,132.79,132.79,0,0,0-2.65,14.68q-.1,1.25-.21,2.53C291.09,299.74,298.28,307.46,305.88,314.88Z"/><path class="cls-2" d="M100,312.28S114.8,291.55,118,282c0,0,3.65-7.93,4.76-22.37,0,0,1.75-63.88,1.11-77.48,0-2.92-.17-16.07,4.58-21.41A4.22,4.22,0,0,1,131,159.2c3.08-.34,6,4.47,7.74,7.38a39.79,39.79,0,0,1,3.16,6.53,152.72,152.72,0,0,1,5.31,16.37c1.94,7.83,2.94,13.87,3.09,14.76,1.28,7.73,3.41,19.36,7.14,36.46,0,0,9.32,38.82,9.48,40.25a22.88,22.88,0,0,0,3,8.66s26.22,38.17,28.76,45.31c0,0-8.66,14.24-12.79,25.66a119,119,0,0,0-3.47-13.5c-1.62-4.74-2.66-7.72-4.84-11.36a42.45,42.45,0,0,0-7.17-8.94A12.38,12.38,0,0,0,149,333.49s1.11,46.48-1.11,66.79A207.41,207.41,0,0,1,107.57,369s-6.32-8.29-7.58-17.47C100,351.55,97.06,316.78,100,312.28Z"/><path class="cls-3" d="M166.92,280.95c-.16-1.43-9.48-40.25-9.48-40.25-3.73-17.1-5.86-28.73-7.14-36.46-.15-.89-1.14-6.93-3.09-14.76a152.72,152.72,0,0,0-5.31-16.37,39.79,39.79,0,0,0-3.16-6.53c-1.76-2.91-4.66-7.73-7.74-7.38a4.22,4.22,0,0,0-2.58,1.59c-4.75,5.33-4.63,18.49-4.58,21.41.63,13.59-1.11,77.48-1.11,77.48C121.62,274.1,118,282,118,282c-3.17,9.52-18,30.25-18,30.25-1,1.49-1.3,6.28-1.3,12a252,252,0,0,1,26.69-10.55c16.46-5.55,32.22-12.27,48.15-18.81-2.22-3.27-3.65-5.35-3.65-5.35A22.88,22.88,0,0,1,166.92,280.95Z"/><path class="cls-2" d="M198.25,323.75s12.09-18.85,6.06-54.43c0,0-6.88-44.31-11.11-53-2.76-6.58-2.81-12.24-.58-13.73a5.6,5.6,0,0,1,3.35-.84,5.7,5.7,0,0,1,3,1.18,34.77,34.77,0,0,1,4.33,3.93,37.7,37.7,0,0,1,5.6,8c1.76,3.15,4.46,7.68,8.5,13.52a36.21,36.21,0,0,0,2.48,3,39.37,39.37,0,0,0,7.08,6s15.16,12.83,16.47,15.5q-1.53,6.07-3.16,12.24-1.89,7.17-3.84,14.17a92.08,92.08,0,0,1-19.06,30.44,56.82,56.82,0,0,0-14.7,20.78S200.58,327.1,198.25,323.75Z"/><path class="cls-3" d="M190.11,173.83s14.76-38.62,32-53.46c0,0,11.39-13.11,17.41-15.91,0,0,8.6-1.72,2.15,8.81a176.28,176.28,0,0,0-23.22,54.18s-6.2,30.48,3.63,60.64c-1-1.67-2.61-4.24-4.48-7.41-3.53-6-4.13-7.44-6.39-10.73a51,51,0,0,0-6.39-7.93,45.73,45.73,0,0,0-6.44-5.34S194.68,186,190.11,173.83Z"/><path class="cls-2" d="M155.41,209.58s24.65-40.64,26.13-46.23l12,33.86s-12.27,1.09-6.34,15.69q2.7,10.24,5.15,21.31,2,9.28,3.67,18.11c.9,4.56,2,11,3,18.71.25,1.94,1.28,10,1.58,15.74.38,7.31,0,19-4.78,34.48,0,0-24.1-39.13-24.1-40S155.41,209.58,155.41,209.58Z"/><path class="cls-3" d="M270.9,267.73c-.43-11-3.65-62.78-3.65-62.78-.21-23.65-6.88-19.56-6.88-19.56-8.17-.21-9,41.28-9,41.28,0,14.62-11,56.76-11,56.76-3.12,7.86-9.63,17.33-15.36,24.83,6.8-2.11,13.78-3.54,21-5.72,8.74-2.64,17.1-5.34,25.62-7.8C270.81,282.11,270.9,267.73,270.9,267.73Z"/><path class="cls-3" d="M243.5,252.88c-1.31-2.67-16.47-15.5-16.47-15.5a39.38,39.38,0,0,1-7.08-6,36.21,36.21,0,0,1-2.48-3c-4-5.84-6.74-10.36-8.5-13.52a37.7,37.7,0,0,0-5.6-8,34.78,34.78,0,0,0-4.33-3.93,5.7,5.7,0,0,0-3-1.18,5.6,5.6,0,0,0-3.35.84c-2.23,1.48-2.18,7.15.58,13.73,3.37,7,8.41,36.46,10.33,48.2,11.09,4.35,22.62,7.12,33.94,11.25q1.44-5.26,2.86-10.62Q242,258.95,243.5,252.88Z"/><path class="cls-3" d="M196.26,253.72l-.27-1.39q-1.63-8.83-3.67-18.11-2.44-11.07-5.15-21.31c-5.93-14.6,6.34-15.69,6.34-15.69l-12-33.86c-1.48,5.59-26.13,46.23-26.13,46.23s9,39.21,13.66,59.64c.63-.35,1.27-.67,1.94-1C180.08,264.5,188,258.83,196.26,253.72Z"/><path class="cls-3" d="M99.52,211.74s3.05-63.33,4.13-69.13a164.16,164.16,0,0,1,19.28-68.53Q136,51,141.87,52.66q2,.58,3.12,4a31,31,0,0,1,.06,6.78,38.11,38.11,0,0,1-1.28,6.33,82.58,82.58,0,0,1-2.65,8.31c-1.29,4.59-2.5,9.5-3.57,14.71a208.65,208.65,0,0,0-3.39,23.14s.86,22.36,1.72,25.8c0,0,2.58,14,2.79,16.23a14.73,14.73,0,0,0-5-4.95,6.25,6.25,0,0,0-3.37-1.18,6.49,6.49,0,0,0-4.94,2.83,38.57,38.57,0,0,0-2.61,4.57,42.34,42.34,0,0,0-3.73,22.7l-1.33,1.74S100.38,210.23,99.52,211.74Z"/><path class="cls-3" d="M140.17,141.4c1.43-5.71,3.76-10.68,5.91-17a226.07,226.07,0,0,1,11.1-26.78c5.12-10.42,5.36-11,8.19-17.74a200.42,200.42,0,0,0,8.36-24q2.28-8.2,4.37-17c2.16-9.17,3.94-18,5.4-26.47,0,0,3.44-11.61,8-2.79A106.21,106.21,0,0,1,194.55,21,113.79,113.79,0,0,1,196.9,43.4a119.17,119.17,0,0,1-.83,15.08c-.81,5.05-1.89,10.5-3.33,16.25C191.42,80,190,84.8,188.47,89.26c0,0-30.73,32.42-47.06,61.23Z"/><path class="cls-3" d="M80.53,199.36C83.92,192.27,82,181.3,82,181.3c-1.13-6.29-4.19,0-4.19,0C77,182.92,71.18,190,71.18,190A177.2,177.2,0,0,0,54,211.51c-4.66,6.87-9,13.27-12.91,22.78A100.29,100.29,0,0,0,35.69,252c7.7-2.92,15.33-6,23-9.14,2.55-6.47,5.49-13.23,8.93-20.2C71.8,214.09,76.2,206.32,80.53,199.36Z"/><path class="cls-3" d="M118.87,244.15c.22-14.92.9-54.78.9-54.78-1.93,2.58-10,15.64-10,15.64-6.7,11.84-17,23-21.92,27.93a20.24,20.24,0,0,0,2.78,1.29C100.16,237.32,109.63,240.47,118.87,244.15Z"/><path class="cls-3" d="M140.65,160.2q5-8.13,10.8-16.66c5.63-8.22,11.28-15.8,16.82-22.77,2.4-2.94,5.77-7,9.88-11.87,3.66-4.31,7.66-9,13-14.82C201.58,82.6,204.78,80.19,206.47,79a41.43,41.43,0,0,1,7.9-4.62,28.89,28.89,0,0,1,4.86-1.54c2-.15,4.48,0,5.67,1.55,2.41,3.14-1.82,10.19-5,15-11.58,17.49-21.45,33.09-25.5,39.83-3.67,6.11-7.06,12.63-13.83,25.67-1.82,3.51-4.22,8.23-9,17.67-5.66,11.17-10.19,20.22-17.72,31.53l-.06.09.28-.41S146.89,165.79,140.65,160.2Z"/></svg>