<?xml version="1.0" encoding="utf-8"?>
<!-- Generator: Adobe Illustrator 22.0.0, SVG Export Plug-In . SVG Version: 6.00 Build 0)  -->
<svg version="1.1" id="Layer_1" xmlns="http://www.w3.org/2000/svg" xmlns:xlink="http://www.w3.org/1999/xlink" x="0px" y="0px"
	 viewBox="0 0 792 612" style="enable-background:new 0 0 792 612;" xml:space="preserve">
<style type="text/css">
	.st0{fill:none;stroke:#000000;stroke-width:6;stroke-miterlimit:10;}
	.st1{stroke:#000000;stroke-width:6;stroke-miterlimit:10;}
	.st2{fill:#FFFFFF;}
</style>
<path class="st2" d="M147.8,401.6c0-5.3,4.3-9.6,9.6-9.6c0.2,0,0.4,0,1.1,0c5.3,0,9.6,4.3,9.6,9.6c0,0.2,0,0.2,0,0.8
	c0,5.3-4.3,9.6-9.6,9.6c-0.4,0-0.8,0-1.1,0c-5.3,0-9.6-4.3-9.6-9.6C147.8,402.2,147.8,401.8,147.8,401.6z"/>
<path class="st2" d="M149.5,369.3v-84.8c0-4.9,3.6-6.5,8.5-6.5c4.7,0,8.6,1.5,8.6,6.5v84.8c0,5.1-3.9,7.9-8.6,7.9
	C153,377.2,149.5,374.4,149.5,369.3z"/>
<path class="st2" d="M245.3,368.7c0,3.2,0.2,4.9-2.5,6.2c-4.5,2.1-9.6,3.4-15.6,3.4c-8.8,0-27.4-1.5-27.4-24.8v-58.3h-13.3
	c-2.1,0-3.6-1.5-3.6-3.6c0-1.1,0.6-2.3,1.7-3.2l25.6-25c0.6-0.6,1.7-1.7,3.2-1.7c2.1,0,3.6,1.7,3.6,3.8v15h21.2
	c4.1,0,5.7,3.2,5.7,7.4c0,4.1-1.5,7.3-5.7,7.3h-21.2v56.8c0,11.1,7.5,11.3,12.2,11.3c6,0,8.1-1.7,11.3-1.7
	C243.8,361.5,245.3,364.7,245.3,368.7z"/>
<path class="st2" d="M455.9,321.2v57.3c0,5-3.9,5-8.6,5c-4.7,0-8.6,0-8.6-5v-55.3c0-15.3-6-24.6-20.7-24.6
	c-13.5,0-23.3,9.3-30.8,19.4v60.6c0,5-3.9,5-8.6,5s-8.6,0-8.6-5v-131c0-5.2,3.8-9.3,8.5-9.3s8.6,4,8.6,9.3v52.7
	c7.9-9.3,18.2-18.6,35-18.6C443.6,281.6,455.9,299.6,455.9,321.2z"/>
<path class="st2" d="M667.9,291.4l-51.3,123.3c-1.5,3.4-4.9,3-8.8,3c-4.5,0-7.1-0.9-7.1-5.4c0-0.9,0.2-2.1,0.6-3l12.2-31.4
	L578,291.8c-0.4-0.9-0.8-2.3-0.8-3.6c0-4.7,3.2-7.2,8.7-7.5c3.6-0.2,6.3,1.1,7.6,4.1l28.9,71.8l29.5-71.4c1.5-3.4,5.4-4.9,9.1-4.5
	c5.8,0.7,7.2,2.8,7.2,7.5C668.5,289.3,668.3,290.5,667.9,291.4z"/>
<path class="st2" d="M560,368.8v-53.2c0-18.4-11.8-37-39.3-37c-13.3,0-23.7,3-32.5,6.8c-3.2,1.3-3.4,5.9-2.4,8.9
	c1.5,4.3,1.5,4.5,4.4,5.4c0.7,0.2,1.7-0.2,2.4-0.4c7-2.3,14.5-4.5,25-4.5c16.9,0,25.2,6.6,25.2,23.3v1.5h-22.7
	c-29.3,0-43.2,12.8-43.2,30.5s14.5,27.3,30.8,28.5c7.5,0.6,13.7-0.1,19.1-1.6l-0.1-13.9c-4.5,0.1-8.4,0.1-12.8,0.1
	c-15.2,0-19.9-7-19.9-15c0-10.7,10.7-14.9,28.4-14.9h20.5v4.4v11.3V364v4.9c0,2.3,0.3,7.4,0.3,9.5c0.1,2.5,7.8,1.4,9.9,1.3
	c3.4-0.2,7.3-0.1,7.2-2.3C560.3,375.6,560,371.3,560,368.8z"/>
<path class="st2" d="M341,368.8v-53.2c0-18.4-11.8-37-39.3-37c-13.3,0-23.7,3-32.5,6.8c-3.2,1.3-3.4,5.9-2.4,8.9
	c1.5,4.3,1.5,4.5,4.4,5.4c0.7,0.2,1.7-0.2,2.4-0.4c7-2.3,14.5-4.5,25-4.5c16.9,0,25.2,6.6,25.2,23.3v1.5h-22.7
	c-29.3,0-43.2,12.8-43.2,30.5s14.5,27.3,30.8,28.5c7.5,0.6,13.7-0.1,19.1-1.6l-0.1-13.9c-4.5,0.1-8.4,0.1-12.8,0.1
	c-15.2,0-19.9-7-19.9-15c0-10.7,10.7-14.9,28.4-14.9h20.5v4.4v11.3V364v4.9c0,2.3,0.3,7.4,0.3,9.5c0.1,2.5,7.8,1.4,9.9,1.3
	c3.4-0.2,7.3-0.1,7.2-2.3C341.3,375.6,341,371.3,341,368.8z"/>
<path class="st2" d="M763.6,368.8v-53.2c0-18.4-11.8-37-39.3-37c-13.3,0-23.7,3-32.5,6.8c-3.2,1.3-3.4,5.9-2.4,8.9
	c1.5,4.3,1.5,4.5,4.4,5.4c0.7,0.2,1.7-0.2,2.4-0.4c7-2.3,14.5-4.5,25-4.5c16.9,0,25.2,6.6,25.2,23.3v1.5h-22.7
	c-29.3,0-43.2,12.8-43.2,30.5s14.5,27.3,30.8,28.5c7.5,0.6,13.7-0.1,19.1-1.6l-0.1-13.9c-4.5,0.1-8.4,0.1-12.8,0.1
	c-15.2,0-19.9-7-19.9-15c0-10.7,10.7-14.9,28.4-14.9h20.5v4.4v11.3V364v4.9c0,2.3,0.3,7.4,0.3,9.5c0.1,2.5,7.8,1.4,9.9,1.3
	c3.4-0.2,7.3-0.1,7.2-2.3C763.9,375.6,763.6,371.3,763.6,368.8z"/>
<path class="st2" d="M75.9,278.6c-13.2,0-23.5,5.3-32.1,14.3V288c0-4.7-4.2-6.3-9.1-6.3c-4.7,0-8,1.6-8,6.3v123.9
	c0,4.9,3.9,5.6,8.6,5.6c4.9,0,8.5-0.7,8.5-5.6v-26.3V364v-15.8v-4.6v-34.9c7.3-8.1,17.5-14.1,29.7-14.1c17.9,0,30.8,11.7,30.8,33.8
	c0,22.2-13,33.8-30.8,33.8c-4.8,0-9.4-1-13.5-2.6v15.6c4.8,1.9,10.1,3,16,3c22.7,0,45.5-17.9,45.5-49.8
	C121.4,296.5,98.7,278.6,75.9,278.6z"/>
</svg>
