<svg id="Layer_1" data-name="Layer 1" xmlns="http://www.w3.org/2000/svg" viewBox="0 0 805 190"><defs><style>.cls-1{fill:#fff;stroke:#fff;stroke-miterlimit:10;stroke-width:6px;}</style></defs><title>logotipo-pitahaya-white-nuevo-2</title><path class="cls-1" d="M131,169.6a9.6,9.6,0,0,1,9.6-9.6h1.1a9.6,9.6,0,0,1,9.6,9.6v.8a9.6,9.6,0,0,1-9.6,9.6h-1.1a9.6,9.6,0,0,1-9.6-9.6Z"/><path class="cls-1" d="M132.7,137.3V52.5c0-4.9,3.6-6.5,8.5-6.5,4.7,0,8.6,1.5,8.6,6.5v84.8c0,5.1-3.9,7.9-8.6,7.9C136.2,145.2,132.7,142.4,132.7,137.3Z"/><path class="cls-1" d="M239.9,136.7c0,3.2.2,4.9-2.5,6.2a36.2,36.2,0,0,1-15.6,3.4c-8.8,0-27.4-1.5-27.4-24.8V63.2H181.1a3.47,3.47,0,0,1-3.6-3.6,4.29,4.29,0,0,1,1.7-3.2l25.6-25a4.73,4.73,0,0,1,3.2-1.7,3.63,3.63,0,0,1,3.6,3.8v15h21.2c4.1,0,5.7,3.2,5.7,7.4s-1.5,7.3-5.7,7.3H211.6V120c0,11.1,7.5,11.3,12.2,11.3,6,0,8.1-1.7,11.3-1.7S239.9,132.7,239.9,136.7Z"/><path class="cls-1" d="M470,89.2v57.3c0,5-3.9,5-8.6,5s-8.6,0-8.6-5V91.2c0-15.3-6-24.6-20.7-24.6-13.5,0-23.3,9.3-30.8,19.4v60.6c0,5-3.9,5-8.6,5s-8.6,0-8.6-5V15.6c0-5.2,3.8-9.3,8.5-9.3s8.6,4,8.6,9.3V68.3c7.9-9.3,18.2-18.6,35-18.6C457.8,49.6,470,67.6,470,89.2Z"/><path class="cls-1" d="M696.4,59.4,645,182.7c-1.5,3.4-4.9,3-8.8,3-4.5,0-7.1-.9-7.1-5.4a8,8,0,0,1,.6-3l12.2-31.4L606.6,59.8a9.55,9.55,0,0,1-.8-3.6c0-4.7,3.2-7.2,8.7-7.5,3.6-.2,6.3,1.1,7.6,4.1L651,124.6l29.5-71.4c1.5-3.4,5.4-4.9,9.1-4.5,5.8.7,7.2,2.8,7.2,7.5A8.29,8.29,0,0,1,696.4,59.4Z"/><path class="cls-1" d="M351.5,136.8V83.6c0-18.4-11.8-37-39.3-37a79.53,79.53,0,0,0-32.5,6.8c-3.2,1.3-3.4,5.9-2.4,8.9,1.5,4.3,1.5,4.5,4.4,5.4a5.07,5.07,0,0,0,2.4-.4c7-2.3,14.5-4.5,25-4.5,16.9,0,25.2,6.6,25.2,23.3v1.5H311.6c-29.3,0-43.2,12.8-43.2,30.5s14.5,27.3,30.8,28.5a50.47,50.47,0,0,0,18.5-1.6l-.1-13.9c-4.5.1-7.8.1-12.2.1-15.2,0-19.9-7-19.9-15,0-10.7,10.7-14.9,28.4-14.9h20.5v35.6c0,2.3.3,7.4.3,9.5.1,2.5,7.8,1.4,9.9,1.3,3.4-.2,7.3-.1,7.2-2.3C351.8,143.6,351.5,139.3,351.5,136.8Z"/><path class="cls-1" d="M583.5,136.8V83.6c0-18.4-11.8-37-39.3-37a79.53,79.53,0,0,0-32.5,6.8c-3.2,1.3-3.4,5.9-2.4,8.9,1.5,4.3,1.5,4.5,4.4,5.4a5.07,5.07,0,0,0,2.4-.4c7-2.3,14.5-4.5,25-4.5,16.9,0,25.2,6.6,25.2,23.3v1.5H543.6c-29.3,0-43.2,12.8-43.2,30.5s14.5,27.3,30.8,28.5a50.47,50.47,0,0,0,18.5-1.6l-.1-13.9c-4.5.1-7.8.1-12.2.1-15.2,0-19.9-7-19.9-15,0-10.7,10.7-14.9,28.4-14.9h20.5v35.6c0,2.3.3,7.4.3,9.5.1,2.5,7.8,1.4,9.9,1.3,3.4-.2,7.3-.1,7.2-2.3C583.8,143.6,583.5,139.3,583.5,136.8Z"/><path class="cls-1" d="M796.5,136.8V83.6c0-18.4-11.8-37-39.3-37a79.53,79.53,0,0,0-32.5,6.8c-3.2,1.3-3.4,5.9-2.4,8.9,1.5,4.3,1.5,4.5,4.4,5.4a5.07,5.07,0,0,0,2.4-.4c7-2.3,14.5-4.5,25-4.5,16.9,0,25.2,6.6,25.2,23.3v1.5H756.6c-29.3,0-43.2,12.8-43.2,30.5s14.5,27.3,30.8,28.5a50.47,50.47,0,0,0,18.5-1.6l-.1-13.9c-4.5.1-7.8.1-12.2.1-15.2,0-19.9-7-19.9-15,0-10.7,10.7-14.9,28.4-14.9h20.5v35.6c0,2.3.3,7.4.3,9.5.1,2.5,7.8,1.4,9.9,1.3,3.4-.2,7.3-.1,7.2-2.3C796.8,143.6,796.5,139.3,796.5,136.8Z"/><path class="cls-1" d="M56.8,46.6c-13.2,0-23.5,5.3-32.1,14.3V56c0-4.7-4.2-6.3-9.1-6.3-4.7,0-8,1.6-8,6.3V179.9c0,4.9,3.9,5.6,8.6,5.6,4.9,0,8.5-.7,8.5-5.6V76.7C32,68.6,42.2,62.6,54.4,62.6c17.9,0,30.8,11.7,30.8,33.8s-13,33.8-30.8,33.8a32.1,32.1,0,0,1-12.5-2.6v15.6a37.73,37.73,0,0,0,14.9,3c22.7,0,45.5-17.9,45.5-49.8S79.5,46.6,56.8,46.6Z"/></svg>