<svg id="Layer_1" data-name="Layer 1" xmlns="http://www.w3.org/2000/svg" viewBox="0 0 255 99"><defs><style>.cls-1{fill:#fff;}</style></defs><title>logotipo-pitahaya-white-footer</title><path class="cls-1" d="M44.1,72.4a3,3,0,0,1,3-3h.34a3,3,0,0,1,3,3v.25a3,3,0,0,1-3,3h-.34a3,3,0,0,1-3-3Z"/><path class="cls-1" d="M44.63,62.35V36c0-1.52,1.12-2,2.65-2S50,34.4,50,36V62.35a2.44,2.44,0,0,1-2.68,2.46A2.37,2.37,0,0,1,44.63,62.35Z"/><path class="cls-1" d="M78,62.16c0,1,.06,1.52-.78,1.93a11.27,11.27,0,0,1-4.85,1.06c-2.74,0-8.53-.47-8.53-7.72V39.29H59.69a1.08,1.08,0,0,1-1.12-1.12,1.34,1.34,0,0,1,.53-1l8-7.78a1.47,1.47,0,0,1,1-.53A1.13,1.13,0,0,1,69.19,30v4.67h6.6c1.28,0,1.77,1,1.77,2.3s-.47,2.27-1.77,2.27h-6.6V57c0,3.45,2.33,3.52,3.8,3.52,1.87,0,2.52-.53,3.52-.53S78,60.92,78,62.16Z"/><path class="cls-1" d="M149.6,47.38V65.21c0,1.56-1.21,1.56-2.68,1.56s-2.68,0-2.68-1.56V48c0-4.76-1.87-7.66-6.44-7.66-4.2,0-7.25,2.89-9.58,6V65.24c0,1.56-1.21,1.56-2.68,1.56s-2.68,0-2.68-1.56V24.48a2.67,2.67,0,1,1,5.32,0v16.4c2.46-2.89,5.66-5.79,10.89-5.79C145.8,35.06,149.6,40.66,149.6,47.38Z"/><path class="cls-1" d="M220.05,38.11l-16,38.37c-.47,1.06-1.52.93-2.74.93-1.4,0-2.21-.28-2.21-1.68a2.5,2.5,0,0,1,.19-.93l3.8-9.77-11-26.79a3,3,0,0,1-.25-1.12c0-1.46,1-2.24,2.71-2.33a2.2,2.2,0,0,1,2.37,1.28l9,22.34,9.18-22.22a2.69,2.69,0,0,1,2.83-1.4c1.8.22,2.24.87,2.24,2.33A2.58,2.58,0,0,1,220.05,38.11Z"/><path class="cls-1" d="M112.72,62.19V45.64c0-5.73-3.67-11.51-12.23-11.51a24.75,24.75,0,0,0-10.11,2.12c-1,.4-1.06,1.84-.75,2.77.47,1.34.47,1.4,1.37,1.68a1.58,1.58,0,0,0,.75-.12,23.2,23.2,0,0,1,7.78-1.4c5.26,0,7.84,2.05,7.84,7.25v.47h-7.06c-9.12,0-13.44,4-13.44,9.49s4.51,8.5,9.58,8.87a15.71,15.71,0,0,0,5.76-.5l0-4.33c-1.4,0-2.43,0-3.8,0-4.73,0-6.19-2.18-6.19-4.67,0-3.33,3.33-4.64,8.84-4.64h6.38V62.23c0,.72.09,2.3.09,3s2.43.44,3.08.4c1.06-.06,2.27,0,2.24-.72S112.72,63,112.72,62.19Z"/><path class="cls-1" d="M184.92,62.19V45.64c0-5.73-3.67-11.51-12.23-11.51a24.75,24.75,0,0,0-10.11,2.12c-1,.4-1.06,1.84-.75,2.77.47,1.34.47,1.4,1.37,1.68a1.58,1.58,0,0,0,.75-.12,23.2,23.2,0,0,1,7.78-1.4c5.26,0,7.84,2.05,7.84,7.25v.47H172.5c-9.12,0-13.44,4-13.44,9.49s4.51,8.5,9.58,8.87a15.71,15.71,0,0,0,5.76-.5l0-4.33c-1.4,0-2.43,0-3.8,0-4.73,0-6.19-2.18-6.19-4.67,0-3.33,3.33-4.64,8.84-4.64h6.38V62.23c0,.72.09,2.3.09,3s2.43.44,3.08.4c1.06-.06,2.27,0,2.24-.72S184.92,63,184.92,62.19Z"/><path class="cls-1" d="M251.21,62.19V45.64c0-5.73-3.67-11.51-12.23-11.51a24.75,24.75,0,0,0-10.11,2.12c-1,.4-1.06,1.84-.75,2.77.47,1.34.47,1.4,1.37,1.68a1.58,1.58,0,0,0,.75-.12,23.2,23.2,0,0,1,7.78-1.4c5.26,0,7.84,2.05,7.84,7.25v.47h-7.06c-9.12,0-13.44,4-13.44,9.49s4.51,8.5,9.58,8.87a15.71,15.71,0,0,0,5.76-.5l0-4.33c-1.4,0-2.43,0-3.8,0-4.73,0-6.19-2.18-6.19-4.67,0-3.33,3.33-4.64,8.84-4.64h6.38V62.23c0,.72.09,2.3.09,3s2.43.44,3.08.4c1.06-.06,2.27,0,2.24-.72S251.21,63,251.21,62.19Z"/><path class="cls-1" d="M21,34.12a13.28,13.28,0,0,0-10,4.45V37c0-1.46-1.31-2-2.83-2s-2.49.5-2.49,2V75.61c0,1.52,1.21,1.74,2.68,1.74S11,77.13,11,75.61V43.49a12.45,12.45,0,0,1,9.24-4.39c5.57,0,9.58,3.64,9.58,10.52s-4,10.52-9.58,10.52a10,10,0,0,1-3.89-.81v4.85a11.74,11.74,0,0,0,4.64.93c7.06,0,14.16-5.57,14.16-15.5S28.08,34.12,21,34.12Z"/></svg>