<svg id="Camada_1" data-name="Camada 1" xmlns="http://www.w3.org/2000/svg" viewBox="0 0 352.48 108.17"><defs><style>.cls-1{fill:#fff;}</style></defs><title>logo-pitahaya-white</title><path class="cls-1" d="M80.19,82.69A3.67,3.67,0,0,1,83.85,79h.43a3.67,3.67,0,0,1,3.66,3.66V83a3.67,3.67,0,0,1-3.66,3.66h-.43A3.67,3.67,0,0,1,80.19,83Zm.65-14.06V37.85a3.26,3.26,0,0,1,6.53,0V68.63a3.26,3.26,0,1,1-6.53,0Z"/><path class="cls-1" d="M118.72,68.94a2.67,2.67,0,0,1-1.65,2.51,14,14,0,0,1-6,1.29c-3.37,0-10.47-.57-10.47-9.47V41H95.55a1.32,1.32,0,0,1-1.36-1.36,1.6,1.6,0,0,1,.65-1.22l9.76-9.54a1.82,1.82,0,0,1,1.22-.65,1.38,1.38,0,0,1,1.36,1.43v5.74h8.11a2.8,2.8,0,0,1,0,5.6h-8.11V62.69c0,4.23,2.87,4.3,4.66,4.3,2.3,0,3.08-.65,4.3-.65A2.62,2.62,0,0,1,118.72,68.94Z"/><path class="cls-1" d="M198.35,48.78V69.15a3.28,3.28,0,0,1-3.3,3.23,3.21,3.21,0,0,1-3.23-3.23V49.49c0-5.45-2.3-8.75-7.89-8.75-5.17,0-8.9,3.3-11.77,6.89V69.15a3.28,3.28,0,0,1-3.3,3.23,3.21,3.21,0,0,1-3.23-3.23V22.59a3.23,3.23,0,0,1,3.23-3.3,3.29,3.29,0,0,1,3.3,3.3V41.31c3-3.3,7-6.6,13.34-6.6C193.69,34.71,198.35,41.1,198.35,48.78Z"/><path class="cls-1" d="M279.28,39.59,259.7,86.66a3.23,3.23,0,0,1-3,2.22,3.12,3.12,0,0,1-3.08-3.16,3.25,3.25,0,0,1,.22-1.15l4.66-12L245,39.74a3.82,3.82,0,0,1-.29-1.36,3.28,3.28,0,0,1,3.23-3.3,3.32,3.32,0,0,1,3,2l11,27.41,11.26-27.26a3.24,3.24,0,0,1,3-2.15,3.28,3.28,0,0,1,3.23,3.3A3.35,3.35,0,0,1,279.28,39.59Z"/><path class="cls-1" d="M139.6,34.71a30.64,30.64,0,0,0-12.41,2.58A2.84,2.84,0,0,0,125.32,40,2.66,2.66,0,0,0,128,42.75a4.2,4.2,0,0,0,.93-.14,28.73,28.73,0,0,1,9.54-1.72c6.46,0,9.61,2.51,9.61,8.9v.57h-8.68c-11.19,0-16.5,4.88-16.5,11.62s5.46,10.53,11.69,10.76A32.15,32.15,0,0,0,145,71.86l0-5.67a28.56,28.56,0,0,1-3.32.65,20.35,20.35,0,0,1-5,.22c-2.22-.22-4.84-.48-6.31-2.49a7,7,0,0,1-1-3.31c0-4.09,4.09-5.67,10.83-5.67h7.82V69.15a3.21,3.21,0,0,0,3.23,3.23,3.28,3.28,0,0,0,3.3-3.23V48.85C154.59,41.82,150.07,34.71,139.6,34.71Z"/><path class="cls-1" d="M222.39,34.71A30.64,30.64,0,0,0,210,37.3,2.84,2.84,0,0,0,208.11,40a2.66,2.66,0,0,0,2.65,2.73,4.2,4.2,0,0,0,.93-.14,28.73,28.73,0,0,1,9.54-1.72c6.46,0,9.61,2.51,9.61,8.9v.57h-8.68c-11.19,0-16.5,4.88-16.5,11.62s5.46,10.53,11.69,10.76a32.15,32.15,0,0,0,10.42-.88l0-5.67a28.56,28.56,0,0,1-3.32.65,20.35,20.35,0,0,1-5,.22c-2.22-.22-4.84-.48-6.31-2.49a7,7,0,0,1-1-3.31c0-4.09,4.09-5.67,10.83-5.67h7.82V69.15a3.21,3.21,0,0,0,3.23,3.23,3.28,3.28,0,0,0,3.3-3.23V48.85C237.38,41.82,232.86,34.71,222.39,34.71Z"/><path class="cls-1" d="M299.48,34.71a30.64,30.64,0,0,0-12.41,2.58A2.84,2.84,0,0,0,285.2,40a2.66,2.66,0,0,0,2.65,2.73,4.2,4.2,0,0,0,.93-.14,28.73,28.73,0,0,1,9.54-1.72c6.46,0,9.61,2.51,9.61,8.9v.57h-8.68c-11.19,0-16.5,4.88-16.5,11.62s5.46,10.53,11.69,10.76a32.15,32.15,0,0,0,10.42-.88l0-5.67a28.56,28.56,0,0,1-3.32.65,20.35,20.35,0,0,1-5,.22c-2.22-.22-4.84-.48-6.31-2.49a7,7,0,0,1-1-3.31c0-4.09,4.09-5.67,10.83-5.67h7.82V69.15a3.21,3.21,0,0,0,3.23,3.23,3.28,3.28,0,0,0,3.3-3.23V48.85C314.47,41.82,310,34.71,299.48,34.71Z"/><path class="cls-1" d="M55.14,34.21a14.89,14.89,0,0,0-11.18,5v-1.7a3,3,0,0,0-5.95,0V80.56a3,3,0,1,0,5.95,0V44.67a13.94,13.94,0,0,1,10.33-4.9C60.5,39.77,65,43.82,65,51.54S60.5,63.3,54.29,63.3A13,13,0,0,1,47,61v5.42a14.33,14.33,0,0,0,8.14,2.43C63,68.86,71,62.65,71,51.54S63,34.21,55.14,34.21Z"/></svg>